<svg xmlns="http://www.w3.org/2000/svg" viewBox="0 0 24 24"><defs><style>.a{fill:#fff;}</style></defs><title>cambiar</title><path class="a" d="M11,12.61q0.62-1.46,1-2.29a11.59,11.59,0,0,1,.6-1,5.46,5.46,0,0,1,.68-0.82,2.64,2.64,0,0,1,.92-0.6,3.21,3.21,0,0,1,1.16-.2h3.43v2.57a0.43,0.43,0,0,0,.43.43,0.42,0.42,0,0,0,.31-0.12l4.28-4.29a0.45,0.45,0,0,0,0-.62L19.61,1.36a0.5,0.5,0,0,0-.32-0.13,0.41,0.41,0,0,0-.43.43V4.23H15.43a6.43,6.43,0,0,0-1.71.22A6.57,6.57,0,0,0,12.29,5a5.43,5.43,0,0,0-1.21.92,10.67,10.67,0,0,0-1,1.11,11.31,11.31,0,0,0-.86,1.34q-0.45.8-.72,1.41L7.85,11.27q-0.62,1.46-1,2.29a11.5,11.5,0,0,1-.6,1,5.51,5.51,0,0,1-.68.82,2.63,2.63,0,0,1-.92.6,3.21,3.21,0,0,1-1.16.2h-3a0.41,0.41,0,0,0-.43.43v2.57a0.41,0.41,0,0,0,.43.43h3a6.42,6.42,0,0,0,1.71-.22,6.56,6.56,0,0,0,1.43-.56A5.44,5.44,0,0,0,7.78,18a10.86,10.86,0,0,0,1-1.11,11.31,11.31,0,0,0,.86-1.34q0.45-.8.72-1.41L11,12.61h0Zm0,0"/><path class="a" d="M0.43,7.66h3a3,3,0,0,1,1.09.19,3.14,3.14,0,0,1,.84.47A3.74,3.74,0,0,1,6,9.08a9,9,0,0,1,.54.85q0.2,0.37.5,1A24.7,24.7,0,0,1,8.92,7.24a6.48,6.48,0,0,0-5.49-3h-3A0.41,0.41,0,0,0,0,4.66V7.23a0.41,0.41,0,0,0,.43.43h0Zm0,0"/><path class="a" d="M19.61,13.36a0.5,0.5,0,0,0-.32-0.13,0.41,0.41,0,0,0-.43.43v2.57H15.43A3,3,0,0,1,14.34,16a3.11,3.11,0,0,1-.84-0.47,3.72,3.72,0,0,1-.68-0.76A8.72,8.72,0,0,1,12.27,14q-0.2-.37-0.5-1A27.05,27.05,0,0,1,10,16.64a7.66,7.66,0,0,0,.75.93q0.39,0.41.74,0.72a3.83,3.83,0,0,0,.79.54L13,19.2a3.63,3.63,0,0,0,.84.25l0.86,0.14q0.35,0,1,.07h3.2v2.57a0.44,0.44,0,0,0,.74.31l4.29-4.29a0.45,0.45,0,0,0,0-.62Zm0,0"/></svg>