<svg xmlns="http://www.w3.org/2000/svg" viewBox="0 0 24 24"><defs><style>.a{fill:#fff;}</style></defs><title>config_b</title><path class="a" d="M23.71,5.13a0.65,0.65,0,0,0-1.09-.3L19.74,7.71a1.64,1.64,0,0,1-2.32,0h0L16.1,6.39a1.64,1.64,0,0,1,0-2.32h0L19,1.22A0.65,0.65,0,0,0,18.64.13,6.89,6.89,0,0,0,16.51,0a7.19,7.19,0,0,0-6.27,6.38,6.82,6.82,0,0,0,.64,3.34L0.8,18.36a2.16,2.16,0,0,0-.23,3l0.1,0.1,1.71,1.74a2.16,2.16,0,0,0,3.05,0l0.13-.13L14.29,13a6.83,6.83,0,0,0,3.22.59A7.18,7.18,0,0,0,23.9,7.3a6.89,6.89,0,0,0-.18-2.17h0Z"/></svg>