<svg xmlns="http://www.w3.org/2000/svg" viewBox="0 0 120.66 50"><defs><style>.a{fill:#fff;}</style></defs><title>logo_mug_b</title><path class="a" d="M35.16,0H31.84a1.32,1.32,0,0,0-1.13.65L18.24,21.8,5.77,0.65A1.32,1.32,0,0,0,4.63,0H1.32A1.32,1.32,0,0,0,0,1.32V48.69A1.32,1.32,0,0,0,1.32,50H4a1.32,1.32,0,0,0,1.32-1.32V10.4L16,28.38a1.32,1.32,0,0,0,1.13.65h2.3a1.32,1.32,0,0,0,1.13-.65l10.61-18V48.69A1.32,1.32,0,0,0,32.45,50h2.71a1.32,1.32,0,0,0,1.32-1.32V1.32A1.32,1.32,0,0,0,35.16,0Z"/><path class="a" d="M63.88,0.31a6,6,0,0,0-3.77,1.07A4.88,4.88,0,0,0,59,2.62a11.18,11.18,0,0,0-2.3-1.53A10.31,10.31,0,0,0,52.06,0a11.13,11.13,0,0,0-4.15.77A9.72,9.72,0,0,0,44.54,3a10.51,10.51,0,0,0-2.22,3.44,11.71,11.71,0,0,0-.8,4.4V18a11.54,11.54,0,0,0,.8,4.34,10.5,10.5,0,0,0,2.22,3.44,10.06,10.06,0,0,0,3.35,2.26,10.73,10.73,0,0,0,4.17.81A10.35,10.35,0,0,0,56.14,28a10.51,10.51,0,0,0,3.34-2.25,10.68,10.68,0,0,0,2.28-3.43A11.17,11.17,0,0,0,62.6,18V10.85c0-1.07,0-2,0-2.8a8.84,8.84,0,0,1,.21-1.88,1.72,1.72,0,0,1,.4-0.81,1,1,0,0,1,.64-0.14A1.21,1.21,0,0,0,65.09,4V1.52A1.21,1.21,0,0,0,63.88.31ZM57.69,10.85V18a5.84,5.84,0,0,1-1.57,4.39,5.5,5.5,0,0,1-4.07,1.55,5.44,5.44,0,0,1-4.14-1.53A6,6,0,0,1,46.43,18V10.85a6,6,0,0,1,1.49-4.44,5.5,5.5,0,0,1,4.14-1.5,5.56,5.56,0,0,1,4.07,1.53A5.82,5.82,0,0,1,57.69,10.85Z"/><path class="a" d="M119.34,44.67h-19V1.32A1.32,1.32,0,0,0,99,0H96.33A1.32,1.32,0,0,0,95,1.32V48.69A1.32,1.32,0,0,0,96.33,50h23a1.32,1.32,0,0,0,1.32-1.32V46A1.32,1.32,0,0,0,119.34,44.67Z"/><path class="a" d="M89.38,44.37a0.87,0.87,0,0,1-.61-0.16,2.2,2.2,0,0,1-.42-1,11.58,11.58,0,0,1-.22-2.15c0-.92,0-1.94,0-3.13V1.31A1.26,1.26,0,0,0,86.9,0H84.41A1.26,1.26,0,0,0,83.2,1.31V38.59A6.39,6.39,0,0,1,81.5,43.1a5.32,5.32,0,0,1-3.94,1.6,5.22,5.22,0,0,1-4.14-1.65,6.86,6.86,0,0,1-1.49-4.77V25.17a6.59,6.59,0,0,1,1.56-4.77,5.34,5.34,0,0,1,4.07-1.65,6.42,6.42,0,0,1,2,.31,5.52,5.52,0,0,1,1.64.86,1.15,1.15,0,0,0,.7.24A1.14,1.14,0,0,0,82.47,20a1.32,1.32,0,0,0,.66-1.16v-3a1.33,1.33,0,0,0-.64-1.16,9.77,9.77,0,0,0-4.92-1.3,9.95,9.95,0,0,0-7.42,3.24,11.65,11.65,0,0,0-2.28,3.71A13.11,13.11,0,0,0,67,25.17V38.28a13.36,13.36,0,0,0,.8,4.69A11.49,11.49,0,0,0,70,46.69,10,10,0,0,0,77.56,50a9.58,9.58,0,0,0,4.72-1.22,11.05,11.05,0,0,0,2.31-1.71,6,6,0,0,0,1,1.29,5.22,5.22,0,0,0,3.8,1.31,1.26,1.26,0,0,0,1.21-1.31V45.68A1.26,1.26,0,0,0,89.38,44.37Z"/><path class="a" d="M62.6,32.9a1.26,1.26,0,0,0-1.21-1.31H58.9a1.26,1.26,0,0,0-1.21,1.31v6.3a6,6,0,0,1-1.49,4.37,5.44,5.44,0,0,1-4.14,1.53,5.39,5.39,0,0,1-5.63-5.63,1.21,1.21,0,0,0-1.21-1.21H42.73a1.21,1.21,0,0,0-1.21,1.21,10,10,0,0,0,.85,4.1A10.92,10.92,0,0,0,48,49.16a10,10,0,0,0,4.1.85,10.76,10.76,0,0,0,4.17-.81,10.12,10.12,0,0,0,3.35-2.26A10.55,10.55,0,0,0,61.8,43.5a11.56,11.56,0,0,0,.8-4.34s0,0,0-.06V32.9Z"/></svg>