<svg xmlns="http://www.w3.org/2000/svg" viewBox="0 0 242.56 100"><defs><style>.a{fill:#fe5f5b;}.b{fill:#fff;}</style></defs><title>logo_mug</title><path class="a" d="M157.76,25.31h-3.29a1.31,1.31,0,0,0-1.12.64L141,46.93l-12.37-21a1.31,1.31,0,0,0-1.12-.64h-3.29a1.31,1.31,0,0,0-1.31,1.31v47a1.31,1.31,0,0,0,1.31,1.31h2.68a1.31,1.31,0,0,0,1.31-1.31v-38l10.52,17.83a1.31,1.31,0,0,0,1.12.64h2.28a1.31,1.31,0,0,0,1.12-.64l10.52-17.83v38a1.31,1.31,0,0,0,1.31,1.31h2.68a1.31,1.31,0,0,0,1.31-1.31v-47A1.31,1.31,0,0,0,157.76,25.31Z"/><path class="a" d="M186.25,25.61a5.92,5.92,0,0,0-3.73,1.06,4.84,4.84,0,0,0-1.1,1.23,11.09,11.09,0,0,0-2.28-1.51,10.22,10.22,0,0,0-4.61-1.08,11,11,0,0,0-4.12.76,9.64,9.64,0,0,0-3.34,2.22,10.42,10.42,0,0,0-2.2,3.41,11.61,11.61,0,0,0-.8,4.37v7.09a11.45,11.45,0,0,0,.8,4.31,10.41,10.41,0,0,0,2.2,3.41,10,10,0,0,0,3.33,2.24,10.64,10.64,0,0,0,4.13.8,10.26,10.26,0,0,0,4-.81,10.42,10.42,0,0,0,3.31-2.23,10.59,10.59,0,0,0,2.26-3.41,11.07,11.07,0,0,0,.83-4.32V36.07c0-1.06,0-2,0-2.78a8.76,8.76,0,0,1,.21-1.87,1.71,1.71,0,0,1,.39-0.8,1,1,0,0,1,.63-0.14,1.2,1.2,0,0,0,1.2-1.2V26.81A1.2,1.2,0,0,0,186.25,25.61Zm-6.14,10.45v7.09a5.79,5.79,0,0,1-1.55,4.36,5.46,5.46,0,0,1-4,1.54,5.39,5.39,0,0,1-4.1-1.52,6,6,0,0,1-1.48-4.38V36.07a6,6,0,0,1,1.48-4.4,5.45,5.45,0,0,1,4.11-1.49,5.52,5.52,0,0,1,4,1.51A5.77,5.77,0,0,1,180.11,36.07Z"/><path class="a" d="M241.25,69.6H222.42v-43a1.31,1.31,0,0,0-1.31-1.31h-2.68a1.31,1.31,0,0,0-1.31,1.31v47a1.31,1.31,0,0,0,1.31,1.31h22.82a1.31,1.31,0,0,0,1.31-1.31V70.91A1.31,1.31,0,0,0,241.25,69.6Z"/><path class="a" d="M211.54,69.31a0.86,0.86,0,0,1-.61-0.16,2.18,2.18,0,0,1-.42-1A11.49,11.49,0,0,1,210.3,66c0-.91,0-1.92,0-3.1V26.61a1.25,1.25,0,0,0-1.2-1.3h-2.47a1.25,1.25,0,0,0-1.2,1.3v37A6.34,6.34,0,0,1,203.72,68a5.28,5.28,0,0,1-3.91,1.59,5.17,5.17,0,0,1-4.1-1.64,6.8,6.8,0,0,1-1.48-4.73v-13a6.54,6.54,0,0,1,1.55-4.73,5.29,5.29,0,0,1,4-1.63,6.36,6.36,0,0,1,2,.31,5.47,5.47,0,0,1,1.63.85,1.14,1.14,0,0,0,.7.24,1.13,1.13,0,0,0,.55-0.14,1.31,1.31,0,0,0,.65-1.15V41.07a1.31,1.31,0,0,0-.64-1.15,9.69,9.69,0,0,0-4.88-1.29,9.87,9.87,0,0,0-7.36,3.21,11.55,11.55,0,0,0-2.26,3.68,13,13,0,0,0-.84,4.74v13a13.25,13.25,0,0,0,.8,4.65,11.39,11.39,0,0,0,2.2,3.69,9.93,9.93,0,0,0,7.46,3.29,9.5,9.5,0,0,0,4.68-1.21,11,11,0,0,0,2.29-1.7,5.91,5.91,0,0,0,1,1.27,5.18,5.18,0,0,0,3.77,1.3,1.25,1.25,0,0,0,1.2-1.3V70.61A1.25,1.25,0,0,0,211.54,69.31Z"/><path class="a" d="M185,57.94a1.25,1.25,0,0,0-1.2-1.3h-2.47a1.25,1.25,0,0,0-1.2,1.3v6.25a6,6,0,0,1-1.48,4.33,5.65,5.65,0,0,1-9.69-4.07,1.2,1.2,0,0,0-1.2-1.2h-2.47a1.2,1.2,0,0,0-1.2,1.2,9.94,9.94,0,0,0,.84,4.07,10.83,10.83,0,0,0,5.54,5.54,9.94,9.94,0,0,0,4.07.84,10.67,10.67,0,0,0,4.13-.8A10,10,0,0,0,182,71.86a10.46,10.46,0,0,0,2.2-3.41,11.46,11.46,0,0,0,.8-4.31s0,0,0-.06V57.94Z"/><circle class="a" cx="50.1" cy="50.1" r="50.1"/><rect class="b" x="33.8" y="21.61" width="4.24" height="4.24" rx="2.12" ry="2.12"/><rect class="b" x="38.05" y="25.86" width="4.24" height="4.24" rx="2.12" ry="2.12"/><rect class="b" x="33.8" y="30.1" width="4.24" height="4.24" rx="2.12" ry="2.12"/><rect class="b" x="47.72" y="21.61" width="4.24" height="4.24" rx="2.12" ry="2.12"/><rect class="b" x="51.97" y="25.86" width="4.24" height="4.24" rx="2.12" ry="2.12"/><rect class="b" x="47.72" y="30.1" width="4.24" height="4.24" rx="2.12" ry="2.12"/><path class="b" d="M71,43.11H65.53v-5.8h-41V42h0v3.53h0v28.3h0c0,0.09,0,.19,0,0.28v0.08c0,0.07,0,.13,0,0.2V74.5l0,0.2v0.07a4.67,4.67,0,0,0,.14.53v0l0.08,0.22,0,0.05,0.09,0.21v0a4.73,4.73,0,0,0,.27.49h0l0.15,0.23v0l0.16,0.21h0a4.79,4.79,0,0,0,.59.61h0a4.7,4.7,0,0,0,3.1,1.17H61.05a4.74,4.74,0,0,0,4.47-3.22V72.79H71a4.74,4.74,0,0,0,4.73-4.73V47.84A4.74,4.74,0,0,0,71,43.11Zm-1.21,6V66.87H65.53V49h4.25v0Z"/></svg>