<svg xmlns="http://www.w3.org/2000/svg" viewBox="0 0 24 24"><defs><style>.a{fill:#fe5f5b;}</style></defs><title>logout</title><path class="a" d="M3.33,11L5.21,9.15a1,1,0,0,0-.69-1.66,1,1,0,0,0-.69.29L0.29,11.3A1,1,0,0,0,0,12a1,1,0,0,0,.07.37,0.93,0.93,0,0,0,.21.32l3.54,3.54a1,1,0,0,0,1.38,0,1,1,0,0,0,0-1.38L3.33,13H6.6V11H3.33Zm0,0"/><path class="a" d="M20.8,3.28h-11A3.25,3.25,0,0,0,6.6,6.52V11H16.2a1,1,0,1,1,0,1.95H6.6v4.5a3.25,3.25,0,0,0,3.25,3.25h11A3.25,3.25,0,0,0,24,17.48v-11A3.25,3.25,0,0,0,20.8,3.28h0Zm0,0"/></svg>