<svg xmlns="http://www.w3.org/2000/svg" viewBox="0 0 24 24"><defs><style>.a{fill:#fff;}</style></defs><title>subir_imagen</title><path class="a" d="M9,6A1.5,1.5,0,1,1,7.5,4.5,1.5,1.5,0,0,1,9,6H9ZM9,6"/><path class="a" d="M17.87,14.58a0.78,0.78,0,0,0-1.25,0l-1.5,2.25A0.75,0.75,0,0,0,15.75,18H16.5v1.5a0.75,0.75,0,1,0,1.5,0V18h0.75a0.75,0.75,0,0,0,.62-1.17Zm0,0"/><path class="a" d="M22.5,0H1.5A1.5,1.5,0,0,0,0,1.5v15A1.5,1.5,0,0,0,1.5,18h9A6.75,6.75,0,0,0,24,17.25V1.5A1.5,1.5,0,0,0,22.5,0h0Zm-13,9.93a0.75,0.75,0,0,0-.93,0L3,14V3H21v8.25S18,8.12,17.09,7a0.78,0.78,0,0,0-.57-0.28,0.76,0.76,0,0,0-.58.26l-4.15,4.88Zm13,8.07a5.21,5.21,0,1,1,.06-0.75,5.25,5.25,0,0,1-.06.75h0Zm0,0"/></svg>