<svg xmlns="http://www.w3.org/2000/svg" viewBox="0 0 24 24"><defs><style>.a{fill:#fe5f5b;}</style></defs><title>usuario</title><path class="a" d="M12,11.74c2.67,0,4.83-2.63,4.83-5.87S16.12,0,12,0,7.17,2.63,7.17,5.87,9.33,11.74,12,11.74h0Zm0,0"/><path class="a" d="M2.87,20.7c0-.2,0-0.06,0,0h0Zm0,0"/><path class="a" d="M21.12,20.46c-0.09-5.65-.83-7.26-6.47-8.27a3.38,3.38,0,0,1-2.65,1,3.38,3.38,0,0,1-2.65-1c-5.58,1-6.36,2.59-6.47,8.09a1.29,1.29,0,0,1,0,.42c0,0.1,0,.28,0,0.59,0,0,1.34,2.71,9.13,2.71s9.13-2.71,9.13-2.71c0-.2,0-0.34,0-0.44a3.88,3.88,0,0,1,0-.39h0Zm0,0"/></svg>